<?xml version="1.0" ?><!DOCTYPE svg  PUBLIC '-//W3C//DTD SVG 1.1//EN'  'http://www.w3.org/Graphics/SVG/1.1/DTD/svg11.dtd'><svg enable-background="new 0 0 200 200" height="200px" id="Layer_1" version="1.1" viewBox="0 0 200 200" width="200px" xml:space="preserve" xmlns="http://www.w3.org/2000/svg" xmlns:xlink="http://www.w3.org/1999/xlink"><g><path d="M126.304,172.234c0-2.143-1.751-3.892-3.892-3.892H77.584c-2.139,0-3.89,1.749-3.89,3.892l0,0   c0,2.138,1.75,3.892,3.89,3.892h44.828C124.553,176.126,126.304,174.372,126.304,172.234L126.304,172.234z" fill="#000000"/><path d="M100,33.63c2.141,0,3.892-1.749,3.892-3.892V4.683c0-2.142-1.751-3.895-3.892-3.895l0,0   c-2.141,0-3.892,1.752-3.892,3.895v25.056C96.108,31.881,97.859,33.63,100,33.63L100,33.63z" fill="#000000"/><path d="M133.58,42.628c1.855,1.068,4.244,0.43,5.316-1.425l12.529-21.699c1.07-1.855,0.428-4.246-1.426-5.315l0,0   c-1.852-1.07-4.245-0.43-5.315,1.425l-12.528,21.697C131.086,39.167,131.727,41.56,133.58,42.628L133.58,42.628z" fill="#000000"/><path d="M158.162,67.214c1.068,1.85,3.463,2.494,5.316,1.425l21.701-12.534c1.854-1.068,2.495-3.459,1.425-5.312   l0,0c-1.07-1.855-3.463-2.497-5.316-1.425l-21.699,12.529C157.732,62.965,157.092,65.357,158.162,67.214L158.162,67.214z" fill="#000000"/><path d="M167.16,100.792c0,2.143,1.754,3.895,3.891,3.892h25.058c2.141,0,3.892-1.749,3.892-3.892l0,0   c0-2.137-1.751-3.89-3.892-3.89h-25.058C168.907,96.902,167.16,98.655,167.16,100.792L167.16,100.792z" fill="#000000"/><path d="M66.418,42.628c1.855-1.068,2.496-3.461,1.427-5.317L55.315,15.609c-1.072-1.85-3.461-2.49-5.317-1.42l0,0   c-1.853,1.069-2.492,3.46-1.422,5.315l12.529,21.699C62.175,43.058,64.567,43.696,66.418,42.628L66.418,42.628z" fill="#000000"/><path d="M41.836,67.214c1.074-1.857,0.432-4.249-1.422-5.317L18.712,49.365c-1.852-1.068-4.245-0.426-5.318,1.425   l0,0c-1.068,1.855-0.424,4.243,1.427,5.315l21.702,12.529C38.378,69.703,40.766,69.063,41.836,67.214L41.836,67.214z" fill="#000000"/><path d="M32.84,100.792c0-2.143-1.751-3.89-3.888-3.895H3.892C1.751,96.902,0,98.649,0,100.792l0,0   c0,2.139,1.751,3.892,3.892,3.892h25.061C31.089,104.684,32.84,102.931,32.84,100.792L32.84,100.792z" fill="#000000"/><path d="M126.304,182.92c0-2.142-1.751-3.891-3.892-3.891H77.584c-2.139,0-3.89,1.749-3.89,3.891l0,0   c0,2.141,1.75,3.89,3.89,3.89h44.828C124.553,186.81,126.304,185.061,126.304,182.92L126.304,182.92z" fill="#000000"/><path d="M86.857,189.715c1.827,5.517,7.017,9.497,13.143,9.497s11.314-3.98,13.14-9.497H86.857z" fill="#000000"/><path d="M100,46.002c-30.258,0-54.788,24.532-54.788,54.79c0,16.082,6.935,30.557,17.981,40.579   c0.023,0.013,1.648,1.381,2.438,2.067c5.193,4.51,8.068,11.468,8.068,18.889h52.597c0-7.421,2.878-14.379,8.068-18.889   c0.791-0.687,2.417-2.055,2.441-2.067c11.044-10.022,17.979-24.497,17.979-40.579C154.786,70.534,130.258,46.002,100,46.002z" fill="#000000"/></g></svg>