<?xml version="1.0" encoding="iso-8859-1"?>
<!-- Generator: Adobe Illustrator 18.0.0, SVG Export Plug-In . SVG Version: 6.00 Build 0)  -->
<!DOCTYPE svg PUBLIC "-//W3C//DTD SVG 1.1//EN" "http://www.w3.org/Graphics/SVG/1.1/DTD/svg11.dtd">
<svg version="1.1" id="Capa_1" xmlns="http://www.w3.org/2000/svg" xmlns:xlink="http://www.w3.org/1999/xlink" x="0px" y="0px"
	 viewBox="0 0 485.323 485.323" style="enable-background:new 0 0 485.323 485.323;" xml:space="preserve">
<path d="M362.172,89.021h-25.81c3.08-7.53,4.792-15.761,4.792-24.387C341.154,28.994,312.16,0,276.522,0
	c-35.639,0-64.634,28.994-64.634,64.634c0,8.625,1.711,16.854,4.791,24.385l-25.811-0.001c-15.03,0-27.26,12.229-27.262,27.262
	l0.001,131.839c-6.723-4.045-14.588-6.377-22.99-6.377c-24.664,0-44.729,20.066-44.729,44.729v174.151c0,7.18,5.82,13,13,13
	s13-5.82,13-13V286.47c0-10.327,8.402-18.728,18.729-18.728c10.327,0,18.729,8.401,18.729,18.728c0,7.18,5.82,13,13,13
	s13-5.82,13-13c0-2.816-0.274-5.569-0.774-8.242c2.022,0.48,4.128,0.742,6.296,0.742h2.2v169.858
	c0,20.124,16.372,36.496,36.496,36.496h8.225c18.833,0,33.799-14.337,36.395-34.866c0.585-4.627,1.387-10.703,2.319-17.633
	c0.952,7.023,1.77,13.134,2.358,17.675c2.659,20.504,17.622,34.824,36.388,34.824h8.225c20.125,0,36.498-16.372,36.498-36.496
	V278.97h2.196c0.003,0,0.004,0,0.007,0c7.281,0,14.127-2.835,19.274-7.983c5.149-5.149,7.985-11.995,7.985-19.276V116.279
	C389.431,101.249,377.201,89.021,362.172,89.021z M276.522,26c21.302,0,38.632,17.331,38.632,38.634
	c0,21.302-17.331,38.633-38.632,38.633c-21.303,0-38.634-17.331-38.634-38.633C237.888,43.331,255.219,26,276.522,26z
	 M304.057,123.092c4.619-2.185,8.935-4.903,12.877-8.071h45.238c0.696,0,1.263,0.567,1.263,1.262V251.71
	c0,0.347-0.124,0.646-0.369,0.892c-0.245,0.244-0.544,0.368-0.893,0.368h0h-15.2c-7.18,0-13,5.82-13,13v182.858
	c0,5.787-4.709,10.496-10.498,10.496h-8.225c-7.125,0-10.018-7.648-10.604-12.169c-3.526-27.181-15.135-109.911-15.252-110.743
	c-0.9-6.416-6.387-11.189-12.865-11.193c-0.003,0-0.005,0-0.008,0c-6.475,0-11.963,4.766-12.872,11.177
	c-0.116,0.822-11.685,82.53-15.259,110.802c-0.569,4.504-3.443,12.127-10.6,12.127h-8.225c-5.788,0-10.496-4.709-10.496-10.496
	V265.97c0-7.18-5.82-13-13-13H190.87c-0.696,0-1.263-0.566-1.263-1.263l-0.001-135.426c0-0.697,0.566-1.264,1.261-1.264
	l45.238,0.001c3.942,3.169,8.259,5.888,12.878,8.072l13.65,17.152l-13.743,71.713c-0.753,3.93,0.345,7.986,2.977,10.999
	l14.863,17.016c2.469,2.826,6.038,4.448,9.791,4.448h0c3.753,0,7.322-1.621,9.79-4.447l14.862-17.014
	c2.632-3.013,3.73-7.07,2.977-10.999l-13.743-71.716L304.057,123.092z"/>
<g>
</g>
<g>
</g>
<g>
</g>
<g>
</g>
<g>
</g>
<g>
</g>
<g>
</g>
<g>
</g>
<g>
</g>
<g>
</g>
<g>
</g>
<g>
</g>
<g>
</g>
<g>
</g>
<g>
</g>
</svg>
