<?xml version="1.0" ?><!DOCTYPE svg  PUBLIC '-//W3C//DTD SVG 1.1//EN'  'http://www.w3.org/Graphics/SVG/1.1/DTD/svg11.dtd'><svg height="512px" id="Layer_1" style="enable-background:new 0 0 512 512;" version="1.1" viewBox="0 0 512 512" width="512px" xml:space="preserve" xmlns="http://www.w3.org/2000/svg" xmlns:xlink="http://www.w3.org/1999/xlink"><style type="text/css">
<![CDATA[
	.st0{fill:#319997;}
]]>
</style><path class="st0" d="M368.79,210.129c-86.483,40.513-28.951,154.672,51.271,123.541C503.178,301.404,450.951,171.646,368.79,210.129   M95.301,416.697c41.123,41.117,97.939,66.557,160.694,66.557s119.571-25.439,160.699-66.557  c41.117-41.127,66.557-97.943,66.557-160.699c0-62.754-25.439-119.568-66.557-160.694c-38.707-38.701-91.292-63.833-149.686-66.293  c-11.59-0.489-10.572,11.638-1.56,22.029c13.391,15.445,21.732,31.517,10.617,48.55c-14.156,17.699-33.317,20.925-55.799,10.444  c-16.796-9.309-35.207-20.083-46.691-23.639c-14.923-4.627-28.945,11.833-9.32,29.876c14.771,13.575,48.632,24.355,57.605,40.385  c21,37.485-15.118,98.868-34.027,112.258c3.97,4.814,52.416,13.016,53.915,5.691c-5.223-9.695-3.5-28.291,9.996-60.199  c11.238-26.563,25.094-40.105,43.259-33.905c33.368,18.63,10.366,45.803,0.839,83.084c-6.71,25.064,32.244,38.098,37.823,58.354  c25.753,93.551-168.896,105.371-221.608,25.514c-10.075-15.27-19.122-42.332-14.297-71.359c8.314-50.016,30.164-57.936-12.81-69.884  c-12.4-3.447-24.08-8.255-19.602-28.682c6.765-30.827,46.568-17.595,76.017-10.293c36.678,9.094,44.527,28.587,42.771,53.924  c-0.782,11.336-6.524,26.454-10.276,40.129c18.909-13.731,43.063-55.418,36.063-88.63c-2.874-18.769-36.61-23.069-56.291-41.349  c-34.162-31.696-5.96-91.725,57.074-48.257c9.706,6.695,18.758,11.07,26.603,13.416c27.262,8.152,35.486-12.706,15.297-37.063  c-12.58-14.705-17.394-21.66-19.636-29.504c-53.563,5.39-101.641,29.378-137.67,65.404c-41.123,41.125-66.557,97.939-66.557,160.694  C28.744,318.754,54.178,375.57,95.301,416.697z M255.995,0.001C397.383,0.001,512,114.616,512,255.998  c0,141.389-114.617,256-256.005,256C114.612,511.998,0,397.387,0,255.998C0,114.616,114.612,0.001,255.995,0.001z"/><path class="st0" d="M368.792,210.13c-86.483,40.513-28.951,154.672,51.271,123.542C503.18,301.405,450.953,171.647,368.792,210.13   M95.303,416.699c41.123,41.117,97.939,66.557,160.694,66.557s119.571-25.439,160.699-66.557  c41.117-41.128,66.557-97.944,66.557-160.699s-25.439-119.569-66.557-160.694c-38.707-38.701-91.292-63.833-149.685-66.293  c-11.591-0.489-10.573,11.638-1.561,22.029c13.391,15.445,21.732,31.517,10.617,48.55c-14.156,17.699-33.317,20.925-55.799,10.444  c-16.796-9.309-35.207-20.083-46.691-23.639c-14.922-4.627-28.945,11.833-9.32,29.876c14.771,13.575,48.632,24.355,57.605,40.385  c21,37.485-15.118,98.867-34.027,112.258c3.97,4.814,52.416,13.017,53.915,5.692c-5.223-9.695-3.5-28.292,9.997-60.2  c11.239-26.563,25.093-40.105,43.258-33.905c33.368,18.63,10.366,45.803,0.839,83.084c-6.71,25.065,32.244,38.098,37.823,58.354  c25.753,93.551-168.896,105.37-221.608,25.513c-10.075-15.27-19.122-42.331-14.297-71.359c8.314-50.016,30.164-57.936-12.809-69.884  c-12.401-3.447-24.081-8.255-19.602-28.682c6.765-30.827,46.568-17.595,76.017-10.293c36.678,9.094,44.527,28.587,42.771,53.924  c-0.782,11.336-6.524,26.454-10.276,40.13c18.909-13.732,43.063-55.419,36.063-88.63c-2.874-18.769-36.61-23.069-56.291-41.349  c-34.162-31.696-5.96-91.725,57.074-48.257c9.706,6.695,18.758,11.07,26.603,13.416c27.262,8.152,35.486-12.706,15.297-37.063  c-12.58-14.705-17.394-21.66-19.636-29.504c-53.563,5.39-101.641,29.378-137.67,65.404C54.18,136.431,28.746,193.245,28.746,256  S54.18,375.571,95.303,416.699z M255.997,6.491c137.804,0,249.515,111.708,249.515,249.509  c0,137.804-111.711,249.509-249.515,249.509C118.198,505.509,6.488,393.804,6.488,256C6.488,118.199,118.198,6.491,255.997,6.491z"/></svg>